<?xml version="1.0" encoding="UTF-8"?>
<svg width="56px" height="72px" viewBox="0 0 56 72" version="1.1" xmlns="http://www.w3.org/2000/svg" xmlns:xlink="http://www.w3.org/1999/xlink">
    <!-- Generator: Sketch 52 (66869) - http://www.bohemiancoding.com/sketch -->
    <title>Group 18</title>
    <desc>Created with Sketch.</desc>
    <defs>
        <polygon id="path-1" points="0 0.139937743 55.9354171 0.139937743 55.9354171 71.8599222 0 71.8599222"></polygon>
    </defs>
    <g id="Symbols" stroke="none" stroke-width="1" fill="none" fill-rule="evenodd">
        <g id="Icon" transform="translate(-11.000000, 7.000000)">
            <g id="Group-18" transform="translate(11.000000, -7.000000)">
                <g id="Group-3" transform="translate(0.000000, 0.000140)">
                    <mask id="mask-2" fill="white">
                        <use xlink:href="#path-1"></use>
                    </mask>
                    <g id="Clip-2"></g>
                    <path d="M51.5956704,67.5392918 L4.33969045,67.5392918 L4.33969045,9.50533074 L12.8370573,9.50533074 L12.8370573,12.3913541 C12.8370573,13.5850973 13.8091779,14.5516342 15.0069869,14.5516342 L41.3682131,14.5516342 C42.5660221,14.5516342 43.5381427,13.5852374 43.5381427,12.3913541 L43.5381427,9.50533074 L51.5956704,9.50533074 L51.5956704,67.5392918 Z M17.1767759,10.231214 L39.1982834,10.231214 L39.1982834,4.46042802 L17.1767759,4.46042802 L17.1767759,10.231214 Z M53.7653186,5.18477043 L43.538002,5.18477043 L43.538002,2.30028794 C43.538002,1.10626459 42.5658814,0.139867704 41.3680724,0.139867704 L15.0069869,0.139867704 C13.8091779,0.139867704 12.8370573,1.10626459 12.8370573,2.30028794 L12.8370573,5.18491051 L2.16990151,5.18491051 C0.972092462,5.18491051 -2.81407035e-05,6.15256809 -2.81407035e-05,7.34519066 L-2.81407035e-05,69.699572 C-2.81407035e-05,70.8921946 0.972092462,71.8599922 2.16990151,71.8599922 L53.7654593,71.8599922 C54.963409,71.8599922 55.9355296,70.8923346 55.9355296,69.699572 L55.9355296,7.34505058 C55.9353889,6.15256809 54.9632683,5.18477043 53.7653186,5.18477043 Z" id="Fill-1" fill="#EF6E3D" mask="url(#mask-2)"></path>
                </g>
                <path d="M12.5470814,32.3893401 L11.0929106,32.3893401 L11.0929106,30.3957525 L12.5470814,30.3957525 C13.8705387,30.3956125 13.8720864,32.3893401 12.5470814,32.3893401 M11.0929106,37.4279393 L11.0929106,35.634523 L12.5470814,35.634523 C18.1791618,35.634523 18.180006,27.1504296 12.5470814,27.1504296 L9.46314171,27.1504296 C8.56306131,27.1504296 7.83337286,27.8770132 7.83337286,28.772951 L7.83337286,37.4277992 C7.83337286,39.5722506 11.0929106,39.5737914 11.0929106,37.4279393" id="Fill-4" fill="#EF6E3D"></path>
                <path d="M21.1357648,32.7335813 L21.1357648,31.7374879 C21.1357648,29.9649432 23.8299558,29.9617214 23.8299558,31.7374879 L23.8299558,32.7335813 L21.1357648,32.7335813 Z M27.0896342,37.4278693 L27.0896342,31.7374879 C27.0896342,28.7073245 24.7863176,27.1912623 22.4827196,27.1905619 C20.179403,27.1900016 17.8759457,28.7050833 17.8759457,31.7374879 L17.8759457,37.4278693 C17.8759457,39.5714802 21.1356241,39.5758226 21.1356241,37.4278693 L21.1356241,35.9787642 L23.8298151,35.9787642 L23.8298151,37.4278693 C23.8299558,39.5723206 27.0896342,39.5738615 27.0896342,37.4278693 Z" id="Fill-6" fill="#EF6E3D"></path>
                <path d="M34.147604,35.8053058 L30.604408,35.8053058 C28.4506593,35.8053058 28.4489709,39.0504887 30.604408,39.0504887 L34.147604,39.0504887 C39.173393,39.0504887 39.1760663,31.4777416 34.147604,31.4777416 L32.7786995,31.4777416 C32.0611116,31.4777416 32.0573126,30.3956405 32.7786995,30.3956405 L36.3217548,30.3956405 C38.4756442,30.3956405 38.477192,27.1504576 36.3217548,27.1504576 L32.7786995,27.1504576 C30.6809508,27.1504576 28.9744985,28.8493214 28.9744985,30.9360607 C28.9744985,33.0243409 30.6809508,34.7230646 32.7786995,34.7230646 L34.147604,34.7230646 C34.8675839,34.7230646 34.8661769,35.8053058 34.147604,35.8053058" id="Fill-8" fill="#EF6E3D"></path>
                <path d="M44.6778412,35.8053058 L41.1346452,35.8053058 C38.9808965,35.8053058 38.9793487,39.0504887 41.1346452,39.0504887 L44.6778412,39.0504887 C49.7010975,39.0504887 49.7060221,31.4777416 44.6778412,31.4777416 L43.3073889,31.4777416 C42.5907859,31.4777416 42.5892382,30.3956405 43.3073889,30.3956405 L46.8504442,30.3956405 C49.0043337,30.3956405 49.0061628,27.1504576 46.8504442,27.1504576 L43.3073889,27.1504576 C38.2820221,27.1504576 38.2824442,34.7230646 43.3073889,34.7230646 L44.6778412,34.7230646 C45.3976804,34.7230646 45.3936,35.8053058 44.6778412,35.8053058" id="Fill-10" fill="#EF6E3D"></path>
                <path d="M9.46307136,20.4440778 C6.6447799,20.4440778 6.65758392,24.6769494 9.46307136,24.6769494 L46.8505286,24.6769494 C49.6581266,24.6769494 49.6654432,20.4440778 46.8505286,20.4440778 L9.46307136,20.4440778 Z" id="Fill-12" fill="#EF6E3D"></path>
                <path d="M46.8505005,42.1616872 L9.46304322,42.1616872 C6.64475176,42.1616872 6.65755578,46.3945588 9.46304322,46.3945588 L46.8505005,46.3945588 C49.6582392,46.3945588 49.6654151,42.1616872 46.8505005,42.1616872" id="Fill-14" fill="#EF6E3D"></path>
                <path d="M33.4574251,49.6298521 L25.8892643,57.164358 L22.8562593,54.1448405 C20.8727618,52.1669416 17.861003,55.1571829 19.8501286,57.1376031 L24.3854251,61.6527315 C25.2151538,62.4787704 26.5597166,62.4822724 27.3928221,61.6527315 L36.4632744,52.6224747 C38.4571839,50.6377121 35.4378271,47.6548949 33.4574251,49.6298521" id="Fill-16" fill="#EF6E3D"></path>
            </g>
        </g>
    </g>
</svg>