<?xml version="1.0" encoding="UTF-8"?>
<svg width="24px" height="24px" viewBox="0 0 24 24" version="1.1" xmlns="http://www.w3.org/2000/svg" xmlns:xlink="http://www.w3.org/1999/xlink">
    <!-- Generator: Sketch 55.2 (78181) - https://sketchapp.com -->
    <title>Facebook</title>
    <desc>Created with Sketch.</desc>
    <g id="Symbols" stroke="none" stroke-width="1" fill="none" fill-rule="evenodd">
        <g id="Footer" transform="translate(-230.000000, -191.000000)" fill="#EF6E3D">
            <g id="Facebook" transform="translate(230.000000, 191.000026)">
                <path d="M14.7438082,8.23756029 L12.951528,8.23756029 C12.7396927,8.23756029 12.50352,8.51595106 12.50352,8.88895991 L12.50352,10.1830672 L14.7438082,10.1830672 L14.7438082,12.0277475 L12.50352,12.0277475 L12.50352,17.5670034 L10.3876509,17.5670034 L10.3876509,12.0277475 L8.46970988,12.0277475 L8.46970988,10.1830672 L10.3876509,10.1830672 L10.3876509,9.09731838 C10.3876509,7.54046585 11.4684328,6.27417282 12.951528,6.27417282 L14.7438082,6.27417282 L14.7438082,8.23756029 Z M11.9204143,7.4502434e-05 C5.33688253,7.4502434e-05 2.48341447e-05,5.33693219 2.48341447e-05,11.920464 C2.48341447e-05,18.504244 5.33688253,23.8408534 11.9204143,23.8408534 C18.503946,23.8408534 23.8408037,18.504244 23.8408037,11.920464 C23.8408037,5.33693219 18.503946,7.4502434e-05 11.9204143,7.4502434e-05 L11.9204143,7.4502434e-05 Z" id="Fill-1"></path>
            </g>
        </g>
    </g>
</svg>