<?xml version="1.0" encoding="UTF-8"?>
<svg width="64px" height="72px" viewBox="0 0 64 72" version="1.1" xmlns="http://www.w3.org/2000/svg" xmlns:xlink="http://www.w3.org/1999/xlink">
    <!-- Generator: Sketch 52 (66869) - http://www.bohemiancoding.com/sketch -->
    <title>Group 6</title>
    <desc>Created with Sketch.</desc>
    <defs>
        <polygon id="path-1" points="0 0 63.905396 0 63.905396 72 0 72"></polygon>
    </defs>
    <g id="Symbols" stroke="none" stroke-width="1" fill="none" fill-rule="evenodd">
        <g id="Icon" transform="translate(-7.000000, 7.000000)">
            <g id="Group-6" transform="translate(7.000000, -7.000000)">
                <g id="Group-3">
                    <mask id="mask-2" fill="white">
                        <use xlink:href="#path-1"></use>
                    </mask>
                    <g id="Clip-2"></g>
                    <path d="M59.3950872,51.5999531 L56.6883383,51.5999531 L56.6883383,26.775 C56.6883383,25.5322969 55.6787172,24.525 54.4328317,24.525 L40.5991048,24.525 C39.3533604,24.525 38.3435982,25.5322969 38.3435982,26.775 L38.3435982,51.59925 L7.44315771,51.59925 C5.82666432,51.59925 4.51099912,50.2875 4.51099912,48.6749531 L4.51099912,45.9749531 C4.51099912,44.3624063 5.82666432,43.0506563 7.44315771,43.0506563 L15.3374308,43.0506563 C16.5831753,43.0506563 17.5929374,42.0433594 17.5929374,40.8006563 L17.5929374,16.9783594 L20.6002326,17.0092969 L20.6002326,35.775 C20.6002326,36.1845 20.7130079,36.5865469 20.9250256,36.9375469 L26.1878273,45.6375938 C26.596074,46.3125938 27.3284088,46.7250469 28.118541,46.7250469 C28.9086731,46.7250469 29.6410079,46.3125938 30.0492546,45.6375938 L35.3120564,36.9375469 C35.5247789,36.5865469 35.6368493,36.1845 35.6368493,35.775 L35.6368493,17.1105469 L59.3950872,17.2379531 L59.3950872,51.5999531 Z M42.8546115,67.5 L42.8546115,29.025 L52.1773251,29.025 L52.1773251,32.3250469 L49.7715454,32.3250469 C48.5258009,32.3250469 47.5160388,33.3323437 47.5160388,34.5750469 C47.5160388,35.81775 48.5258009,36.8250469 49.7715454,36.8250469 L52.1773251,36.8250469 L52.1773251,39.2249531 L49.7715454,39.2249531 C48.5258009,39.2249531 47.5160388,40.23225 47.5160388,41.4749531 C47.5160388,42.7176563 48.5258009,43.7249531 49.7715454,43.7249531 L52.1773251,43.7249531 L52.1773251,46.0500469 L49.7715454,46.0500469 C48.5258009,46.0500469 47.5160388,47.0573438 47.5160388,48.3000469 C47.5160388,49.54275 48.5258009,50.5500469 49.7715454,50.5500469 L52.1773251,50.5500469 L52.1773251,52.875 L49.7715454,52.875 C48.5258009,52.875 47.5160388,53.8822969 47.5160388,55.125 C47.5160388,56.3677031 48.5258009,57.375 49.7715454,57.375 L52.1773251,57.375 L52.1773251,67.5 L42.8546115,67.5 Z M4.51099912,11.4757031 C4.51099912,9.86315625 5.82666432,8.55070313 7.44315771,8.55070313 L13.0819242,8.55070313 L13.0819242,38.5506563 L7.44315771,38.5506563 C6.40238238,38.5506563 5.41136916,38.7655313 4.51099912,39.1518281 L4.51099912,12.4506563 L4.51099912,11.4757031 Z M25.1113868,8.25004687 L31.1261181,8.25004687 L31.1261181,4.5 L25.1113868,4.5 L25.1113868,8.25004687 Z M25.1113868,12.7500469 L31.1261181,12.7500469 L31.1261181,35.1487969 L31.1259771,35.1487969 L28.1186819,40.11975 L25.1113868,35.1487969 L25.1113868,12.7500469 Z M61.6625762,12.7500469 L35.6368493,12.6104062 L35.6368493,2.25 C35.6369903,1.00729688 34.6272282,0 33.3814837,0 L22.8557392,0 C21.6099947,0 20.6002326,1.00729688 20.6002326,2.25 L20.6002326,12.5092969 L17.5929374,12.4785 L17.5929374,6.30070313 C17.5929374,5.058 16.5831753,4.05070313 15.3374308,4.05070313 L7.44315771,4.05070313 C3.38944846,4.05070313 0.0848493392,7.300125 0.00379207048,11.3249531 L-1.40969163e-05,11.3249531 L-1.40969163e-05,11.4757031 L-1.40969163e-05,12.4506563 L-1.40969163e-05,45.9749531 L-1.40969163e-05,48.6749531 L-1.40969163e-05,48.6756562 C-1.40969163e-05,52.7699531 3.33884053,56.0999531 7.44315771,56.0999531 L38.3435982,56.0999531 L38.3435982,69.75 C38.3435982,70.9927031 39.3533604,72 40.5991048,72 L54.4328317,72 C55.679563,72 56.6883383,70.9927031 56.6883383,69.75 L56.6883383,56.0999531 L61.6505938,56.0999531 C62.8963383,56.0999531 63.9061004,55.0926562 63.9053956,53.8499531 L63.9053956,15.0000469 C63.9052546,13.7625469 62.9031048,12.7567969 61.6625762,12.7500469 Z" id="Fill-1" fill="#EF6E3D" mask="url(#mask-2)"></path>
                </g>
                <path d="M47.5160952,59.9959688 C46.1333286,59.9959688 45.0085357,61.1180156 45.0085357,62.4972656 C45.0085357,63.8766562 46.1333286,64.9985625 47.5160952,64.9985625 C48.8988617,64.9985625 50.0235137,63.8766562 50.0235137,62.4972656 C50.0235137,61.1180156 48.8988617,59.9959688 47.5160952,59.9959688" id="Fill-4" fill="#EF6E3D"></path>
            </g>
        </g>
    </g>
</svg>