<?xml version="1.0" encoding="UTF-8"?>
<svg width="24px" height="25px" viewBox="0 0 24 25" version="1.1" xmlns="http://www.w3.org/2000/svg" xmlns:xlink="http://www.w3.org/1999/xlink">
    <!-- Generator: Sketch 55.2 (78181) - https://sketchapp.com -->
    <title>Instagram</title>
    <desc>Created with Sketch.</desc>
    <g id="Symbols" stroke="none" stroke-width="1" fill="none" fill-rule="evenodd">
        <g id="Footer" transform="translate(-412.000000, -191.000000)" fill="#EF6E3D">
            <g id="Instagram" transform="translate(412.000000, 191.000026)">
                <path d="M11.9031794,0.250444338 C8.67027043,0.250444338 8.26522553,0.264213269 6.99545571,0.322543468 C5.72866599,0.380873667 4.86319605,0.583652469 4.10625132,0.880310346 C3.32347908,1.18698199 2.65941405,1.59729614 1.99783244,2.26421309 C1.33600248,2.93138038 0.929219192,3.60055043 0.625000919,4.38963535 C0.330467963,5.15293482 0.129559733,6.02488367 0.0714478343,7.30239012 C0.0135842771,8.58214967 -7.45024345e-05,8.99071141 -7.45024345e-05,12.2496922 C-7.45024345e-05,15.5081723 0.0135842771,15.9169844 0.0714478343,17.196744 C0.129559733,18.4740001 0.330467963,19.3461993 0.625000919,20.1094987 C0.929219192,20.8985836 1.33600248,21.5675033 1.99783244,22.2346706 C2.65941405,22.9015876 3.32347908,23.3121521 4.10625132,23.6188237 C4.86319605,23.9152313 5.72866599,24.1182604 6.99545571,24.1763403 C8.26522553,24.2349208 8.67027043,24.2486897 11.9031794,24.2486897 C15.1360883,24.2486897 15.5411332,24.2349208 16.8109031,24.1763403 C18.0776928,24.1182604 18.9431627,23.9152313 19.7001075,23.6188237 C20.4828797,23.3121521 21.1469447,22.9015876 21.8085263,22.2346706 C22.4703563,21.5675033 22.8771396,20.8985836 23.1813579,20.1094987 C23.4758908,19.3461993 23.676799,18.4740001 23.7349109,17.196744 C23.7927745,15.9169844 23.8064333,15.5081723 23.8064333,12.2496922 C23.8064333,8.99071141 23.7927745,8.58214967 23.7349109,7.30239012 C23.676799,6.02488367 23.4758908,5.15293482 23.1813579,4.38963535 C22.8771396,3.60055043 22.4703563,2.93138038 21.8085263,2.26421309 C21.1469447,1.59729614 20.4828797,1.18698199 19.7001075,0.880310346 C18.9431627,0.583652469 18.0776928,0.380873667 16.8109031,0.322543468 C15.5411332,0.264213269 15.1360883,0.250444338 11.9031794,0.250444338 M11.9031794,2.41241685 C15.0814532,2.41241685 15.4576905,2.42468372 16.7130565,2.48226288 C17.8735561,2.5355862 18.5038467,2.73110502 18.9235437,2.89533082 C19.4790836,3.11313027 19.8756849,3.37323789 20.2919051,3.79306512 C20.7083737,4.21289234 20.9664005,4.61269203 21.1822092,5.17271201 C21.3453695,5.59579371 21.5393242,6.23091694 21.5922209,7.40077539 C21.6495878,8.66601498 21.6617565,9.04553679 21.6617565,12.2496922 C21.6617565,15.4535973 21.6495878,15.8328687 21.5922209,17.0983587 C21.5393242,18.2682171 21.3453695,18.9035907 21.1822092,19.3261717 C20.9664005,19.886442 20.7083737,20.2859914 20.2919051,20.706069 C19.8756849,21.1258962 19.4790836,21.3860038 18.9235437,21.6035529 C18.5038467,21.7677787 17.8735561,21.9632975 16.7130565,22.0166208 C15.4579389,22.0744504 15.0817016,22.0867172 11.9031794,22.0867172 C8.72465721,22.0867172 8.34841992,22.0744504 7.09330224,22.0166208 C5.93280266,21.9632975 5.30251207,21.7677787 4.88281503,21.6035529 C4.32727521,21.3860038 3.93067392,21.1258962 3.51445365,20.706069 C3.09798505,20.2859914 2.83995828,19.886442 2.62414957,19.3261717 C2.46098924,18.9035907 2.26703457,18.2682171 2.2138895,17.0983587 C2.15677096,15.8328687 2.14460223,15.4535973 2.14460223,12.2496922 C2.14460223,9.04553679 2.15677096,8.66601498 2.2138895,7.40077539 C2.26703457,6.23091694 2.46098924,5.59579371 2.62414957,5.17271201 C2.83995828,4.61269203 3.09798505,4.21289234 3.51445365,3.79306512 C3.93067392,3.37323789 4.32727521,3.11313027 4.88281503,2.89533082 C5.30251207,2.73110502 5.93280266,2.5355862 7.09330224,2.48226288 C8.34841992,2.42468372 8.72490555,2.41241685 11.9031794,2.41241685" id="Fill-1"></path>
                <path d="M7.93542809,12.2494919 C7.93542809,10.0404547 9.71181446,8.24974264 11.9031794,8.24974264 C14.0945443,8.24974264 15.8709307,10.0404547 15.8709307,12.2494919 C15.8709307,14.4585292 14.0945443,16.2492412 11.9031794,16.2492412 C9.71181446,16.2492412 7.93542809,14.4585292 7.93542809,12.2494919 Z M5.79075135,12.2494919 C5.79075135,15.6524207 8.52722576,18.4112137 11.9031794,18.4112137 C15.279133,18.4112137 18.0156074,15.6524207 18.0156074,12.2494919 C18.0156074,8.84656322 15.279133,6.08777013 11.9031794,6.08777013 C8.52722576,6.08777013 5.79075135,8.84656322 5.79075135,12.2494919 Z" id="Fill-4"></path>
                <path d="M19.6854305,5.84431039 C19.6854305,6.63965392 19.0459512,7.28429023 18.2572188,7.28429023 C17.468238,7.28429023 16.8287588,6.63965392 16.8287588,5.84431039 C16.8287588,5.04896687 17.468238,4.40433055 18.2572188,4.40433055 C19.0459512,4.40433055 19.6854305,5.04896687 19.6854305,5.84431039" id="Fill-6"></path>
            </g>
        </g>
    </g>
</svg>