<?xml version="1.0" encoding="UTF-8"?>
<svg width="72px" height="72px" viewBox="0 0 72 72" version="1.1" xmlns="http://www.w3.org/2000/svg" xmlns:xlink="http://www.w3.org/1999/xlink">
    <!-- Generator: Sketch 52 (66869) - http://www.bohemiancoding.com/sketch -->
    <title>Group</title>
    <desc>Created with Sketch.</desc>
    <defs>
        <polygon id="path-1" points="-5.68434189e-14 1.40624999e-05 71.998167 1.40624999e-05 71.998167 72 -5.68434189e-14 72"></polygon>
    </defs>
    <g id="Symbols" stroke="none" stroke-width="1" fill="none" fill-rule="evenodd">
        <g id="Icon" transform="translate(-3.000000, 6.000000)">
            <g id="Group-6" transform="translate(3.000000, -6.000000)">
                <g id="Group">
                    <g id="Group-3" fill="#EF6E3D">
                        <path d="M54.9447609,52.1910141 C54.3687609,52.0380141 53.7524016,52.1190141 53.2349016,52.4160141 C52.7172609,52.7130141 52.3394016,53.2078734 52.1864016,53.7885141 L49.4909016,63.9180141 L40.8822609,49.0183734 C47.0922609,47.7720141 52.4564016,44.1765141 56.0429016,39.2175141 L65.0879016,54.9180141 L54.9447609,52.1910141 Z M15.7497609,24.7500141 C15.7497609,13.5855141 24.8352609,4.50001406 35.9997609,4.50001406 C47.1644016,4.50001406 56.2497609,13.5855141 56.2497609,24.7500141 C56.2497609,35.9145141 47.1644016,45.0000141 35.9997609,45.0000141 C24.8352609,45.0000141 15.7497609,35.9145141 15.7497609,24.7500141 Z M22.5087609,63.9135141 L19.8132609,53.7840141 C19.6602609,53.2078734 19.2822609,52.7130141 18.7647609,52.4115141 C18.2474016,52.1145141 17.6264016,52.0380141 17.0549016,52.1865141 L6.91190156,54.9133734 L15.9567609,39.2130141 C19.5432609,44.1720141 24.9027609,47.7630141 31.1174016,49.0140141 L22.5087609,63.9135141 Z M71.6984016,57.3840141 L58.6392609,34.7130141 C59.9892609,31.6575141 60.7497609,28.2915141 60.7497609,24.7500141 C60.7497609,11.1015141 49.6482609,1.40625e-05 35.9997609,1.40625e-05 C22.3514016,1.40625e-05 11.2497609,11.1015141 11.2497609,24.7500141 C11.2497609,28.2915141 12.0102609,31.6575141 13.3604016,34.7085141 L0.301260937,57.3750141 C-0.153239062,58.1670141 -0.0900984375,59.1525141 0.467760938,59.8725141 C1.02576094,60.5925141 1.95726094,60.9165141 2.83476094,60.6735141 L16.0469016,57.1185141 L19.5612609,70.3260141 C19.7952609,71.2078734 20.5379016,71.8605141 21.4379016,71.9775141 C21.5412609,71.9955141 21.6402609,72.0000141 21.7347609,72.0000141 C22.5312609,72.0000141 23.2782609,71.5768734 23.6832609,70.8750141 L35.9997609,49.5540141 L48.3162609,70.8750141 C48.7212609,71.5768734 49.4684016,72.0000141 50.2649016,72.0000141 C50.3594016,72.0000141 50.4627609,71.9955141 50.5617609,71.9820141 C51.4617609,71.8650141 52.2044016,71.2125141 52.4384016,70.3305141 L55.9527609,57.1230141 L69.1647609,60.6780141 C70.0422609,60.9210141 70.9784016,60.5970141 71.5317609,59.8770141 C72.0854016,59.1570141 72.1527609,58.1715141 71.6984016,57.3840141 Z" id="Fill-1"></path>
                    </g>
                    <mask id="mask-2" fill="white">
                        <use xlink:href="#path-1"></use>
                    </mask>
                    <g id="Clip-2"></g>
                    <path d="M40.670775,24.48 C40.319775,24.921 40.144275,25.4745 40.184775,26.0325 L40.4684156,30.249 L36.8819156,28.7235 C36.598275,28.602 36.296775,28.5435 35.999775,28.5435 C35.702775,28.5435 35.401275,28.602 35.117775,28.7235 L31.5359156,30.249 L31.814775,26.0325 C31.855275,25.4745 31.679775,24.921 31.328775,24.48 L28.669275,21.1455 L32.597775,20.115 C33.169275,19.9665 33.6599156,19.593 33.961275,19.089 L35.999775,15.6555 L38.038275,19.089 C38.339775,19.593 38.830275,19.9665 39.4019156,20.115 L43.330275,21.1455 L40.670775,24.48 Z M49.382775,19.134 C49.144275,18.4095 48.554775,17.8605 47.816775,17.667 L41.435775,15.9975 L37.934775,10.1025 C37.124775,8.7345 34.874775,8.7345 34.069275,10.1025 L30.568275,15.9975 L24.182775,17.667 C23.440275,17.8605 22.855275,18.4095 22.612275,19.134 C22.369275,19.8585 22.513275,20.6505 22.990275,21.249 L27.269775,26.604 L26.801775,33.6015 C26.752275,34.38 27.107775,35.1315 27.746775,35.586 C28.385775,36.0405 29.213775,36.126 29.929275,35.82 L35.999775,33.2415 L42.070275,35.82 C42.3539156,35.9415 42.655275,36 42.9524156,36 C43.411275,36 43.870275,35.8605 44.257275,35.586 C44.896275,35.1315 45.251775,34.38 45.197775,33.6015 L44.729775,26.604 L49.0049156,21.249 C49.481775,20.655 49.621275,19.8585 49.382775,19.134 Z" id="Fill-4" fill="#EF6E3D" mask="url(#mask-2)"></path>
                </g>
            </g>
        </g>
    </g>
</svg>