<?xml version="1.0" encoding="UTF-8"?>
<svg width="25px" height="25px" viewBox="0 0 25 25" version="1.1" xmlns="http://www.w3.org/2000/svg" xmlns:xlink="http://www.w3.org/1999/xlink">
    <!-- Generator: Sketch 55.2 (78181) - https://sketchapp.com -->
    <title>Linkedin</title>
    <desc>Created with Sketch.</desc>
    <g id="Symbols" stroke="none" stroke-width="1" fill="none" fill-rule="evenodd">
        <g id="Footer" transform="translate(-275.000000, -191.000000)" fill="#EF6E3D">
            <g id="Linkedin" transform="translate(275.000000, 191.000000)">
                <path d="M18.5047289,17.510475 L15.9973005,17.510475 L15.9973005,13.0398142 C15.9973005,12.0006835 15.6341593,11.2914232 14.7273378,11.2914232 C14.034326,11.2914232 13.6221814,11.7698515 13.4406107,12.2317734 C13.3745851,12.3965796 13.3575628,12.6276695 13.3575628,12.8585015 L13.3575628,17.510475 L10.8506502,17.510475 L10.8506502,12.0171899 C10.8506502,11.011072 10.8178953,10.1697604 10.7846245,9.44373578 L12.9621825,9.44373578 L13.0777274,10.5653986 L13.1269887,10.5653986 C13.4571172,10.0374511 14.2654159,9.26242307 15.6184266,9.26242307 C17.2677791,9.26242307 18.5047289,10.3675795 18.5047289,12.7429566 L18.5047289,17.510475 Z M8.07963488,8.45386638 C7.28784253,8.45386638 6.77640141,7.89316391 6.77640141,7.20041008 C6.77640141,6.49089191 7.30434895,5.94669587 8.11238981,5.94669587 C8.92120441,5.94669587 9.41613911,6.49089191 9.4321297,7.20041008 C9.4321297,7.89316391 8.92120441,8.45386638 8.07963488,8.45386638 L8.07963488,8.45386638 Z M6.84242709,17.510475 L9.35011343,17.510475 L9.35011343,9.44373578 L6.84242709,9.44373578 L6.84242709,17.510475 Z M12.3798153,0 C5.54254648,0 8.52651283e-14,5.54280439 8.52651283e-14,12.3798153 C8.52651283e-14,19.2173421 5.54254648,24.7596306 12.3798153,24.7596306 C19.2176,24.7596306 24.7596306,19.2173421 24.7596306,12.3798153 C24.7596306,5.54280439 19.2176,0 12.3798153,0 L12.3798153,0 Z" id="Fill-1"></path>
            </g>
        </g>
    </g>
</svg>