<?xml version="1.0" encoding="UTF-8"?>
<svg width="72px" height="72px" viewBox="0 0 72 72" version="1.1" xmlns="http://www.w3.org/2000/svg" xmlns:xlink="http://www.w3.org/1999/xlink">
    <!-- Generator: Sketch 52 (66869) - http://www.bohemiancoding.com/sketch -->
    <title>Fill 1</title>
    <desc>Created with Sketch.</desc>
    <g id="Symbols" stroke="none" stroke-width="1" fill="none" fill-rule="evenodd">
        <g id="Icon" transform="translate(-3.000000, 7.000000)" fill="#EF6E3D">
            <g id="Group-3" transform="translate(3.000000, -7.000000)">
                <path d="M59.2028437,29.6002687 L59.2028437,67.7716594 L50.4026719,67.7716594 C50.6368125,67.111425 50.7654844,66.4018312 50.7654844,65.6622844 L50.7654844,59.1935344 L52.8748594,59.1935344 C53.6059687,59.1935344 54.2849062,58.8149719 54.6692344,58.1931281 C55.0535625,57.5712844 55.0884375,56.7947531 54.761625,56.1408469 L51.0143906,48.6468 L51.7089375,47.2581281 C53.1225,44.4310031 52.2251719,41.1206906 49.80825,39.3318 C50.4140625,38.3613469 50.765625,37.2166594 50.765625,35.9906906 C50.765625,32.5013625 47.9266875,29.6627062 44.4376406,29.6627062 C40.9483125,29.6627062 38.1095156,32.5015031 38.1095156,35.9906906 C38.1095156,36.9674719 38.332125,37.8927844 38.7289687,38.7196594 C37.902375,38.3228156 36.9769219,38.1002062 36.0005625,38.1000656 C35.1344531,36.9465187 34.0486875,35.9944875 32.8210312,35.2882687 C33.4961719,34.2819562 33.8907656,33.0721594 33.8907656,31.7719406 C33.8907656,28.2826125 31.0519687,25.4438156 27.5626406,25.4438156 C24.0733125,25.4438156 21.2346562,28.2826125 21.2346562,31.7719406 C21.2346562,33.0732844 21.6298125,34.2837844 22.3059375,35.2906594 C19.1475,37.1149875 17.0159063,40.5261281 17.0159063,44.42805 L17.0159063,57.0841594 C17.0159063,58.2492375 17.9603437,59.1935344 19.1252812,59.1935344 L21.2346562,59.1935344 L21.2346562,65.6622844 C21.2346562,66.4016906 21.3633281,67.111425 21.5974687,67.7716594 L12.7972969,67.7716594 L12.7972969,29.6002687 C12.7972969,27.9117844 10.9037813,26.9060344 9.5045625,27.8541281 L7.65351562,29.1083625 L5.0956875,25.6991906 L34.6903594,4.66450313 C34.7049844,4.65409687 34.7196094,4.64340937 34.7339531,4.63258125 C35.4794062,4.07345625 36.5205937,4.07345625 37.2660469,4.63258125 C37.2805312,4.64340937 37.2950156,4.65395625 37.3095,4.66450313 L66.8811094,25.6825969 L64.2512812,29.0927531 L62.528625,27.8769094 C61.1327812,26.8918312 59.2028437,27.8940656 59.2028437,29.6002687 Z M42.3279844,35.9908312 C42.3279844,34.8277219 43.2741094,33.8814562 44.4373594,33.8814562 C45.6003281,33.8814562 46.5467344,34.8277219 46.5467344,35.9908312 C46.5467344,37.1539406 45.6003281,38.1002062 44.4373594,38.1002062 C43.2741094,38.1002062 42.3279844,37.1539406 42.3279844,35.9908312 Z M48.6561094,54.9747844 C47.4911719,54.974925 46.5467344,55.9193625 46.5467344,57.0843 L46.5467344,65.6622844 C46.5467344,66.8253937 45.6003281,67.7716594 44.4373594,67.7716594 C43.2741094,67.7716594 42.3279844,66.8253937 42.3279844,65.6622844 L42.3279844,52.86555 C42.3279844,51.2459719 41.7155625,49.7673 40.7115,48.6468 C41.7158437,47.5264406 42.3279844,46.0476281 42.3279844,44.42805 C42.3279844,43.7460187 42.2181562,43.0894406 42.017625,42.4735031 C42.2447344,42.3802687 42.5122031,42.318675 42.8259375,42.318675 L46.0487812,42.318675 C47.6174531,42.318675 48.6365625,43.9693312 47.9354063,45.3713625 L46.7693438,47.7033469 C46.4724844,48.2972062 46.4724844,48.9961125 46.7693438,49.5899719 L49.4616094,54.9747844 L48.6561094,54.9747844 Z M36,46.5375656 C34.8368906,46.5375656 33.890625,45.5913 33.890625,44.4281906 C33.890625,43.2650812 34.8368906,42.3188156 36,42.3188156 C37.1631094,42.3188156 38.109375,43.2650812 38.109375,44.4281906 C38.109375,45.5913 37.1631094,46.5375656 36,46.5375656 Z M38.109375,65.662425 C38.109375,66.8255344 37.1631094,67.7718 36,67.7718 C34.8368906,67.7718 33.890625,66.8253937 33.890625,65.662425 L33.890625,52.8656906 C33.890625,51.7025813 34.8368906,50.7563156 36,50.7563156 C37.1631094,50.7563156 38.109375,51.7025813 38.109375,52.8656906 L38.109375,65.662425 Z M25.4532656,31.7720812 C25.4532656,30.6089719 26.3995312,29.6627062 27.5626406,29.6627062 C28.72575,29.6627062 29.6720156,30.6089719 29.6720156,31.7720812 C29.6720156,32.9351906 28.72575,33.8814563 27.5626406,33.8814563 C26.3995312,33.8814563 25.4532656,32.9351906 25.4532656,31.7720812 Z M29.6720156,44.4283312 C29.6720156,46.0479094 30.2842969,47.5267219 31.2885,48.6470812 C30.2841562,49.7675812 29.6720156,51.2462531 29.6720156,52.8658312 L29.6720156,65.6625656 C29.6720156,66.825675 28.72575,67.7719406 27.5626406,67.7719406 C26.3995312,67.7719406 25.4532656,66.825675 25.4532656,65.6625656 L25.4532656,57.0845812 C25.4532656,55.9196437 24.5088281,54.9752062 23.3438906,54.9752062 L21.2345156,54.9752062 L21.2345156,44.4284719 C21.2345156,40.9391437 24.0733125,38.1004875 27.5626406,38.1004875 C29.143125,38.1004875 30.6397969,38.6913937 31.7840625,39.7147219 C30.4887656,40.8740344 29.6720156,42.5574562 29.6720156,44.4283312 Z M69.8902031,67.7716594 L63.4215937,67.7716594 L63.4215937,33.6710812 L63.4703906,33.7055344 C64.3940156,34.3573312 65.6669531,34.1653781 66.3571406,33.2703 L71.5611094,26.5221281 C71.9114062,26.0677687 72.0614531,25.4903625 71.9770781,24.9229406 C71.8925625,24.3555187 71.580375,23.8470187 71.1127969,23.5145812 L39.7729687,1.23958125 C37.5470156,-0.413184375 34.453125,-0.413184375 32.2273125,1.23958125 L0.88734375,23.5145812 C0.423703125,23.8442062 0.11278125,24.3470812 0.025171875,24.9091594 C-0.0624375,25.4712375 0.08071875,26.0448469 0.42215625,26.4999094 L5.4855,33.2480812 C6.16092187,34.1483625 7.42429687,34.3598625 8.35607813,33.7283156 L8.5786875,33.5775656 L8.5786875,67.7716594 L2.1099375,67.7716594 C0.945,67.7716594 0.0005625,68.7160969 0.0005625,69.8810344 C0.0005625,71.0461125 0.945,71.9904094 2.1099375,71.9904094 L69.8903437,71.9904094 C71.0552813,71.9904094 71.9997187,71.0461125 71.9997187,69.8810344 C71.9997187,68.7160969 71.0551406,67.7716594 69.8902031,67.7716594 Z" id="Fill-1"></path>
            </g>
        </g>
    </g>
</svg>