<?xml version="1.0" encoding="UTF-8"?>
<svg width="55px" height="72px" viewBox="0 0 55 72" version="1.1" xmlns="http://www.w3.org/2000/svg" xmlns:xlink="http://www.w3.org/1999/xlink">
    <!-- Generator: Sketch 52 (66869) - http://www.bohemiancoding.com/sketch -->
    <title>Group 8</title>
    <desc>Created with Sketch.</desc>
    <defs>
        <polygon id="path-1" points="2.82051282e-05 0 55 0 55 71.9999859 2.82051282e-05 71.9999859"></polygon>
    </defs>
    <g id="Symbols" stroke="none" stroke-width="1" fill="none" fill-rule="evenodd">
        <g id="Icon" transform="translate(-12.000000, 7.000000)">
            <g id="Group-8" transform="translate(12.000000, -7.000000)">
                <g id="Group-3">
                    <mask id="mask-2" fill="white">
                        <use xlink:href="#path-1"></use>
                    </mask>
                    <g id="Clip-2"></g>
                    <path d="M50.769259,35.9999859 C50.769259,52.7371734 38.5176564,60.4369547 29.5718359,66.0591422 C28.8551436,66.5101266 28.1627077,66.9446578 27.5005923,67.3699078 C26.8147846,66.9287672 26.0996436,66.4783453 25.3586949,66.0118922 C16.4422077,60.3951891 4.23079744,52.7037047 4.23079744,35.9999859 L4.23079744,12.7968609 L7.07218205,12.7968609 C14.4771564,12.7968609 21.8133103,9.97662656 27.5000282,4.99822031 C33.1867462,9.97662656 40.5229,12.7968609 47.9278744,12.7968609 L50.769259,12.7968609 L50.769259,35.9999859 Z M52.8846436,8.57811094 L47.9278744,8.57811094 C40.9696692,8.57811094 34.0692846,5.67659531 28.9956051,0.618032812 C28.1699,-0.206029688 26.8301564,-0.206029688 26.0044513,0.618032812 C20.9307718,5.67659531 14.0303872,8.57811094 7.07218205,8.57811094 L2.11541282,8.57811094 C0.947015385,8.57811094 2.82051282e-05,9.52240781 2.82051282e-05,10.6874859 L2.82051282e-05,35.9999859 C2.82051282e-05,44.4435328 2.65525897,51.5758922 8.11675897,57.8045953 C12.6934641,63.0241734 18.4633872,66.6584859 23.0996051,69.5787047 C24.2503744,70.3032047 25.337259,70.9876266 26.3266949,71.6457516 C26.6819385,71.8820016 27.0913359,71.9999859 27.5000282,71.9999859 C27.9087205,71.9999859 28.3181179,71.8820016 28.6733615,71.6457516 C29.6313487,71.0091422 30.6984897,70.3383609 31.8278231,69.6286266 C41.0555538,63.8289703 55.0000282,55.0646578 55.0000282,35.9999859 L55.0000282,10.6874859 C55.0000282,9.52240781 54.053041,8.57811094 52.8846436,8.57811094 Z" id="Fill-1" fill="#EF6E3D" mask="url(#mask-2)"></path>
                </g>
                <path d="M27.5000282,50.7656813 C19.3349256,50.7656813 12.6923359,44.1419625 12.6923359,36.0000563 C12.6923359,27.8580094 19.3349256,21.2344313 27.5000282,21.2344313 C35.6651308,21.2344313 42.3077205,27.8580094 42.3077205,36.0000563 C42.3077205,44.1419625 35.6651308,50.7656813 27.5000282,50.7656813 M27.5000282,17.0156813 C17.0023615,17.0156813 8.46156667,25.53165 8.46156667,36.0000563 C8.46156667,46.4679 17.0023615,54.9844313 27.5000282,54.9844313 C37.9976949,54.9844313 46.5384897,46.4679 46.5384897,36.0000563 C46.5384897,25.53165 37.9981179,17.0156813 27.5000282,17.0156813" id="Fill-4" fill="#EF6E3D"></path>
                <path d="M34.4659192,30.2898375 L25.3845731,39.3448219 L20.5341372,34.5085875 C19.708291,33.6846656 18.3685474,33.6846656 17.5428423,34.5085875 C16.7165731,35.3319469 16.7165731,36.668025 17.5428423,37.4913844 L23.8889962,43.8195094 C24.3016372,44.2315406 24.8431756,44.4375562 25.3845731,44.4375562 C25.9261115,44.4375562 26.46765,44.2315406 26.880291,43.8195094 L37.4572141,33.2726344 C38.2834833,32.4487125 38.2834833,31.1131969 37.4572141,30.289275 C36.6313679,29.4659156 35.2916244,29.4659156 34.4659192,30.2898375" id="Fill-6" fill="#EF6E3D"></path>
            </g>
        </g>
    </g>
</svg>