<?xml version="1.0" encoding="UTF-8"?>
<svg width="72px" height="72px" viewBox="0 0 72 72" version="1.1" xmlns="http://www.w3.org/2000/svg" xmlns:xlink="http://www.w3.org/1999/xlink">
    <!-- Generator: Sketch 52 (66869) - http://www.bohemiancoding.com/sketch -->
    <title>Fill 1</title>
    <desc>Created with Sketch.</desc>
    <g id="Symbols" stroke="none" stroke-width="1" fill="none" fill-rule="evenodd">
        <g id="Icon" transform="translate(-3.000000, 7.000000)" fill="#EF6E3D">
            <g id="Group-6" transform="translate(3.000000, -7.000000)">
                <g id="Group-3">
                    <path d="M67.7669484,29.5913109 C67.7523234,34.5085453 65.5478859,39.0978422 61.7188078,42.1827328 C57.8191359,45.3245766 55.4652141,49.8895453 55.1489484,54.8436234 L38.0953547,54.8436234 L38.0953547,49.5391078 C38.0953547,46.7219672 39.1923703,44.0731547 41.1771516,42.0885141 L55.7125734,27.6935766 L55.7287453,27.6775453 C56.5512609,26.8551703 57.8894484,26.8551703 58.7116828,27.6775453 C59.5340578,28.4997797 59.5343391,29.8381078 58.7116828,30.6606234 L50.7860578,38.5863891 L53.7691359,41.5694672 L61.6949016,33.6437016 C62.9274797,32.4111234 63.5441203,30.7922484 63.5451047,29.1730922 L63.5481984,29.1730922 L63.5481984,10.5468891 C63.5481984,9.38377969 64.4944641,8.43751406 65.6575734,8.43751406 C66.8206828,8.43751406 67.7669484,9.38377969 67.7669484,10.5468891 L67.7669484,29.4668578 L67.7672297,29.4668578 L67.7669484,29.5913109 Z M38.0953547,67.7812641 L55.1109797,67.7812641 L55.1109797,59.0625141 L38.0953547,59.0625141 L38.0953547,67.7812641 Z M33.7634016,39.0912328 L27.9523547,33.3018422 C28.9649953,31.0618266 31.2903703,29.5312641 33.8766047,29.5312641 L38.0953547,29.5312641 C40.6915734,29.5312641 42.9569016,31.0737797 43.9280578,33.3922641 L38.2013859,39.0982641 C37.3404797,39.9593109 36.5991047,40.9081078 35.9855578,41.9241234 C35.3704641,40.9061391 34.6272609,39.9550922 33.7634016,39.0912328 Z M33.8766047,54.8437641 L16.8230109,54.8437641 C16.5067453,49.8895453 14.1529641,45.3245766 10.2531516,42.1828734 C6.42407344,39.0979828 4.20543281,34.5085453 4.19094844,29.5907484 L4.20472969,10.5468891 C4.20472969,9.38377969 5.15099531,8.43751406 6.31410469,8.43751406 C7.47721406,8.43751406 8.43754219,9.38377969 8.43754219,10.5468891 L8.43754219,29.1733734 L8.44063594,29.1733734 C8.44162031,30.7925297 9.04433906,32.4114047 10.2770578,33.6441234 L18.2028234,41.5698891 L21.1859016,38.5868109 L13.2601359,30.6610453 C12.4377609,29.8386703 12.4377609,28.5003422 13.2601359,27.6779672 C14.0760422,26.8619203 15.4035422,26.8458891 16.2432141,27.6781078 L30.7874953,42.0817641 C32.7795891,44.0737172 33.8766047,46.7223891 33.8766047,49.5395297 L33.8766047,54.8437641 Z M16.8609797,67.7812641 L33.8766047,67.7812641 L33.8766047,59.0625141 L16.8609797,59.0625141 L16.8609797,67.7812641 Z M12.6422297,6.32799844 C12.6422297,5.16502969 13.5884953,4.21876406 14.7516047,4.21876406 C15.9147141,4.21876406 16.8609797,5.16502969 16.8609797,6.32813906 L16.8609797,23.2001859 C15.5433234,22.7357016 14.0404641,22.7072953 12.6422297,23.2001859 L12.6422297,6.32799844 Z M55.1109797,6.32813906 C55.1109797,5.16502969 56.0571047,4.21876406 57.2203547,4.21876406 C58.3833234,4.21876406 59.3437922,5.16502969 59.3437922,6.32813906 L59.3437922,23.2052484 C57.9808547,22.7252953 56.4722297,22.7238891 55.1109797,23.2024359 L55.1109797,6.32813906 Z M65.6578547,4.21876406 C64.8347766,4.21876406 64.0482609,4.37668594 63.3262922,4.66370156 C62.5937766,1.97931094 60.1338234,1.40625e-05 57.2203547,1.40625e-05 C53.7308859,1.40625e-05 50.9062922,2.83881094 50.9062922,6.32813906 L50.9062922,26.5228734 L47.0583703,30.3045609 C46.4341359,29.2989516 45.6419953,28.3957172 44.7117609,27.6456234 C42.8459484,26.1410766 40.4962453,25.3125141 38.0953547,25.3125141 L35.9859797,25.3125141 L33.8766047,25.3125141 C30.1577766,25.3125141 26.7597141,27.2542641 24.8379328,30.2298891 L21.0797297,26.5228734 L21.0797297,6.32813906 C21.0797297,2.83881094 18.2409328,1.40625e-05 14.7516047,1.40625e-05 C11.8381359,1.40625e-05 9.37818281,1.97931094 8.64552656,4.66370156 C7.92369844,4.37668594 7.13704219,4.21876406 6.31410469,4.21876406 C2.82477656,4.21876406 4.21875e-05,7.05756094 4.21875e-05,10.5468891 L4.21875e-05,29.4796547 L0.0004640625,29.6038266 C0.0187453125,35.7990609 2.78216719,41.5814203 7.60658906,45.4678734 C10.8067922,48.0460922 12.6423703,51.8819203 12.6423703,55.9914047 L12.6423703,72.0000141 L59.3298703,72.0000141 L59.3298703,55.9916859 C59.3298703,51.8820609 61.1653078,48.0463734 64.3656516,45.4681547 C69.1900734,41.5815609 71.9674172,35.7992016 71.9858391,29.6035453 L71.9859797,10.5468891 C71.9859797,7.05756094 69.1470422,4.21876406 65.6578547,4.21876406 Z" id="Fill-1"></path>
                </g>
            </g>
        </g>
    </g>
</svg>