<?xml version="1.0" encoding="UTF-8"?>
<svg width="72px" height="71px" viewBox="0 0 72 71" version="1.1" xmlns="http://www.w3.org/2000/svg" xmlns:xlink="http://www.w3.org/1999/xlink">
    <!-- Generator: Sketch 52 (66869) - http://www.bohemiancoding.com/sketch -->
    <title>Fill 1</title>
    <desc>Created with Sketch.</desc>
    <g id="Symbols" stroke="none" stroke-width="1" fill="none" fill-rule="evenodd">
        <g id="Icon" transform="translate(-2.000000, 6.000000)" fill="#EF6E3D">
            <path d="M64.5543701,47.0143195 C65.5007753,47.9576019 65.1350101,49.9772404 63.7710898,51.3359928 L55.4269743,59.6470755 C54.0146791,61.0538746 51.7174317,61.0538746 50.3051364,59.6470755 L48.0090141,57.3597488 C50.9933544,56.0909261 53.72682,54.2595519 56.0443174,51.9509334 L62.7767316,45.2441592 L64.5543701,47.0143195 Z M32.5083599,54.3781976 C32.4896568,54.3732949 32.4715162,54.3711937 32.4535162,54.3667113 C32.4100631,54.3563455 32.3671726,54.3465401 32.3238601,54.3388358 C32.2919383,54.3333728 32.2601571,54.3295907 32.2276727,54.3251082 C32.191954,54.3207658 32.1562353,54.3164234 32.1199541,54.3136219 C32.082126,54.3104001 32.0441573,54.3087191 32.0063292,54.3081588 C31.9755324,54.3070382 31.945298,54.306618 31.9146418,54.3070382 C31.8738606,54.3075985 31.8337825,54.3098398 31.7937045,54.3130615 C31.7645951,54.3153028 31.7354858,54.317544 31.7063764,54.3207658 C31.6668609,54.3251082 31.6277672,54.3311316 31.5888141,54.3377152 C31.5580172,54.3426179 31.5279235,54.3486412 31.4971267,54.3552249 C31.461408,54.3629292 31.4262518,54.3711937 31.3910955,54.3809992 C31.3576268,54.389684 31.3240175,54.3996295 31.2905488,54.4099952 C31.2591894,54.420361 31.2290957,54.431287 31.1982989,54.4422131 C31.1625802,54.4559407 31.1268615,54.4696683 31.0922678,54.4849367 C31.0642834,54.4969834 31.0361585,54.5101507 31.0087366,54.5231779 C30.9735804,54.5402674 30.9389867,54.5577771 30.9049555,54.5768276 C30.8769711,54.5922362 30.8494087,54.6086252 30.8219868,54.6255746 C30.79119,54.6447652 30.7599713,54.6638158 30.7297369,54.6846874 C30.6989401,54.7059791 30.6687057,54.7283916 30.6390339,54.7513643 C30.6142839,54.7699946 30.5902371,54.7886249 30.5660496,54.8083758 C30.5308934,54.8379322 30.4972841,54.8684691 30.4643779,54.9002667 C30.4517216,54.9123134 30.438081,54.9226792 30.4254248,54.9352861 L25.6952271,59.6470755 C24.2829318,61.0538746 21.9856844,61.0538746 20.5733892,59.6470755 L12.2298362,51.3359928 C11.5212276,50.6300019 11.104275,49.7266416 11.0564625,48.7914837 C11.0131501,47.9395319 11.2883529,47.1719068 11.8327116,46.6302268 L14.8132551,43.6607222 C14.8588176,43.6612826 14.9045206,43.663944 14.9506456,43.663944 L14.9512081,43.663944 C17.0868775,43.663944 19.0951408,42.8349649 20.6062954,41.3302516 C22.918449,39.0266759 23.514417,35.6527674 22.3971527,32.795325 C23.897901,32.4801504 25.2771494,31.7415214 26.387945,30.6361692 C27.6562404,29.3716889 28.4088646,27.7843299 28.6445518,26.1372977 C29.2894573,26.302029 29.9589722,26.3878965 30.6418464,26.3878965 L30.6424089,26.3878965 C32.7780783,26.3878965 34.7863417,25.5594777 36.2976368,24.0547644 C37.8082288,22.5500511 38.6404466,20.5490429 38.6404466,18.4209844 C38.6404466,17.7420284 38.5546655,17.0760996 38.3904157,16.4348245 C40.0933825,16.1940311 41.6665526,15.4159002 42.9041918,14.1820969 C46.0226882,11.0762969 46.0226882,6.02201783 42.9047543,2.91509721 L41.0524439,1.06999538 L42.7552701,-0.625643666 C44.1911903,-2.05541548 46.5269689,-2.05541548 47.9617641,-0.626203977 C48.6571539,0.0664796335 49.0400754,0.987349614 49.0400754,1.9669121 C49.0400754,2.94633451 48.6571539,3.86720449 47.9617641,4.5598881 C47.5404521,4.97956051 47.3295148,5.53006538 47.3295148,6.08057025 C47.3295148,6.63051481 47.5398896,7.18087961 47.9617641,7.60055202 C48.8049506,8.44045717 50.171121,8.44045717 51.0143075,7.60055202 C52.4491027,6.17134052 54.7847407,6.17078021 56.2206609,7.60055202 C57.6560187,9.03088415 57.6554562,11.3575727 56.2200984,12.7873445 C55.7987864,13.2070169 55.5878491,13.7575218 55.5878491,14.3073263 C55.5878491,14.8578311 55.7982239,15.4077757 56.2200984,15.8274481 C57.063285,16.6673532 58.4294553,16.6673532 59.2726418,15.8280084 C59.9681723,15.1351847 60.8932025,14.7538936 61.8764513,14.7533333 C62.8597002,14.7533333 63.7841679,15.1347645 64.4791359,15.8274481 C65.1750882,16.520692 65.5580096,17.441562 65.5580096,18.4209844 C65.5580096,19.3873796 65.1849319,20.2967632 64.5071202,20.9856647 C64.4972765,20.9954702 64.4872921,21.0048554 64.4780109,21.0146608 L61.3825769,24.0986087 C60.6119528,24.8662338 60.5367185,26.0858893 61.2073583,26.9417632 L61.3183113,27.0833817 C61.9874043,27.9375747 63.1904498,28.161979 64.1241988,27.607692 C65.5716502,26.7485963 67.4158044,26.9788838 68.6088655,28.1668817 C70.0442233,29.5970738 70.0442233,31.9237623 68.6088655,33.3535341 L63.6546524,38.2879068 C63.6452306,38.2977122 63.6353868,38.3076577 63.625965,38.3174631 L52.991774,48.9102695 C47.656327,54.2250928 39.8076328,56.3202331 32.5083599,54.3781976 Z M7.41343545,33.3759465 C7.40513858,33.3671216 7.39698234,33.3589971 7.38868548,33.3507325 C5.95614024,31.9209607 5.95726524,29.5965134 7.39149797,28.1680023 C8.0868878,27.4751786 9.0113555,27.0938875 9.994745,27.0938875 C10.9779939,27.0938875 11.9030241,27.4751786 12.5984139,28.1684226 L17.5533301,33.1033555 C18.9886878,34.5331274 18.9886878,36.8598159 17.553752,38.2895877 C16.8583622,38.9822713 15.9338945,39.3637025 14.9512081,39.3637025 L14.9506456,39.3637025 C14.7699427,39.3637025 14.5913491,39.3505353 14.4155681,39.3253213 C14.4023493,39.3226598 14.3892712,39.3209789 14.3760525,39.3187376 C13.617944,39.2012126 12.9181948,38.8519992 12.3627267,38.3054165 C12.3572423,38.2993931 12.3511954,38.2939301 12.3457111,38.2879068 L7.41343545,33.3759465 Z M11.5217901,15.8274481 C12.2166175,15.1351847 13.1406633,14.7538936 14.1239122,14.7538936 C15.107161,14.7538936 16.0316287,15.1351847 16.7271592,15.8280084 L23.3414485,22.4165572 C24.7696344,23.8468893 24.7668219,26.1679747 23.3348391,27.5956454 C22.6394493,28.2877687 21.7142785,28.6691999 20.7310296,28.6691999 C19.7477807,28.6691999 18.823313,28.2877687 18.1283451,27.5950851 C18.1196263,27.5868205 18.1113295,27.5781357 18.1026107,27.5698711 L11.5420401,21.034972 C11.5350089,21.0278281 11.527837,21.0201238 11.5212276,21.0135402 C10.8258378,20.3208566 10.4429164,19.4005469 10.4429164,18.4209844 C10.4423539,17.441562 10.8258378,16.520692 11.5217901,15.8274481 Z M19.7697182,12.777399 C18.3443448,11.3466466 18.3475792,9.02710205 19.7791401,7.60111233 C20.4750924,6.90842872 21.4001226,6.52699749 22.3833715,6.52699749 C23.365636,6.52699749 24.2889787,6.90786841 24.9843685,7.59999171 C24.984931,7.59999171 24.9854935,7.60055202 24.9854935,7.60111233 C24.988306,7.60335358 24.9904154,7.60559482 24.9926654,7.60769598 L31.5916266,14.1809763 C31.5954234,14.1853187 31.6003453,14.1896611 31.6047047,14.1941436 L33.2445309,15.8274481 C33.9399208,16.5201317 34.3232641,17.4410017 34.3232641,18.4209844 C34.3232641,19.4005469 33.9404833,20.3214169 33.2449528,21.0135402 C32.549563,21.7063639 31.6250953,22.087655 30.6418464,22.087655 C29.6585975,22.087655 28.7339892,21.7063639 28.0391619,21.0135402 C28.0303025,21.0048554 28.0215838,20.9965908 28.0127244,20.9884663 L26.3939919,19.3753329 C26.3917419,19.3730917 26.3894919,19.3709905 26.3873825,19.368189 L19.7797026,12.7873445 L19.7791401,12.7867842 L19.7697182,12.777399 Z M28.0385994,-0.625643666 C28.7339892,-1.31832728 29.6585975,-1.69975851 30.6418464,-1.69975851 C31.6250953,-1.69975851 32.549563,-1.31832728 33.2449528,-0.625643666 L39.8516484,5.95520082 C41.2870061,7.38553295 41.2870061,9.71222147 39.8516484,11.1419933 C39.1562585,11.8346769 38.2316502,12.2161081 37.2489639,12.2161081 L37.2484014,12.2161081 C36.2651525,12.2155478 35.3412473,11.8346769 34.6457168,11.1419933 L34.643045,11.1391917 L28.0402869,4.56212934 C28.0348025,4.55666631 28.0298806,4.55120329 28.0238338,4.54630057 C26.6032416,3.11428752 26.6081635,0.79866512 28.0385994,-0.625643666 Z M66.7351802,41.3012556 L71.6608464,36.394198 C74.7793428,33.288398 74.7799053,28.234119 71.6614089,25.1267781 C70.7044569,24.1741105 69.5554113,23.5048199 68.3276158,23.1338944 C69.3318178,21.775282 69.8750516,20.1397363 69.8750516,18.4209844 C69.8750516,16.293066 69.0428338,14.2920578 67.5316792,12.7873445 C66.0216497,11.2826312 64.0126833,10.4536521 61.8758888,10.4536521 C61.7863108,10.4536521 61.6968734,10.4551929 61.6072954,10.4579945 C61.6770453,8.33105658 60.8992493,6.18072572 59.2726418,4.5598881 C57.6461749,2.94031117 55.4846305,2.16442148 53.352758,2.23502058 C53.3554298,2.14635147 53.3571173,2.05656175 53.3571173,1.96747241 C53.3571173,-0.161146426 52.5248995,-2.16159428 51.0143075,-3.66630759 C47.8963736,-6.7721076 42.8223481,-6.77266791 39.7027267,-3.66630759 L37.9999005,-1.97010823 L36.2976368,-3.66574728 C34.7869042,-5.17102091 32.7780783,-6 30.6412839,-6 C28.5049113,-6 26.496648,-5.17102091 24.986056,-3.6668679 C23.3590266,-2.04617036 22.5827775,0.104860889 22.6536524,2.23333965 C22.5635119,2.23011786 22.473512,2.226756 22.3833715,2.226756 C20.2471395,2.226756 18.2383137,3.05517478 16.7265967,4.5598881 C15.0999892,6.18128603 14.3238807,8.3321772 14.3947556,10.4600956 C14.3040526,10.4568739 14.2139121,10.4536521 14.1233497,10.4536521 C11.9871177,10.4536521 9.97815127,11.2826312 8.46868424,12.7867842 C6.95752972,14.2914975 6.12531192,16.2925057 6.12531192,18.4209844 C6.12531192,20.1391759 6.66798317,21.7747217 7.67274765,23.1327738 C6.42681157,23.5070611 5.28479725,24.1844762 4.33839209,25.1267781 C1.22763002,28.2264147 1.22045815,33.264865 4.31743899,36.3722058 C4.32517335,36.3804704 4.33290772,36.3881747 4.34064208,36.3962992 L9.2734802,41.3089598 C9.28008956,41.3159637 9.28712081,41.3231077 9.29429267,41.3302516 C9.59044858,41.6256752 9.90685447,41.8932234 10.2385885,42.1356977 L8.77960576,43.5890025 C7.36070113,45.0023853 6.63774883,46.9278916 6.74490496,49.0109852 C6.84713922,51.0108728 7.71113823,52.916208 9.17673031,54.3760965 L17.5202833,62.6877395 C19.0682815,64.2291531 21.1007323,65 23.1337456,65 C25.1667589,65 27.1997722,64.2291531 28.7472079,62.6877395 L32.6253598,58.8241198 C34.3947015,59.2021892 36.1970901,59.3942355 38.0010255,59.3942355 C39.8032734,59.3942355 41.6062245,59.2033098 43.3750037,58.8251003 L47.2520305,62.6877395 C48.8000288,64.2291531 50.8324796,65 52.8654929,65 C54.8979437,64.9995798 56.9315195,64.2291531 58.4789552,62.6877395 L66.8230707,54.3760965 C69.9179421,51.2932692 70.2695042,46.6268649 67.606351,43.9736556 L65.8292749,42.2034952 L66.7060708,41.3296913 C66.7159146,41.3204462 66.7253364,41.311061 66.7351802,41.3012556 Z" id="Fill-1"></path>
        </g>
    </g>
</svg>