<?xml version="1.0" encoding="UTF-8"?>
<svg width="77px" height="59px" viewBox="0 0 77 59" version="1.1" xmlns="http://www.w3.org/2000/svg" xmlns:xlink="http://www.w3.org/1999/xlink">
    <!-- Generator: Sketch 52 (66869) - http://www.bohemiancoding.com/sketch -->
    <title>Group 3</title>
    <desc>Created with Sketch.</desc>
    <g id="Symbols" stroke="none" stroke-width="1" fill="none" fill-rule="evenodd">
        <g id="Icon" transform="translate(0.000000, 5.000000)" fill="#EF6E3D">
            <g id="Group-3" transform="translate(0.000000, -5.000000)">
                <path d="M70.2324219,54.461599 L6.76757812,54.461599 C5.52369727,54.461599 4.51171875,53.4436221 4.51171875,52.1923682 C4.51171875,50.9411144 5.52369727,49.9231374 6.76757812,49.9231374 L70.2324219,49.9231374 C71.4763027,49.9231374 72.4882812,50.9411144 72.4882812,52.1923682 C72.4882812,53.4436221 71.4763027,54.461599 70.2324219,54.461599 Z M9.0234375,38.5769836 C9.0234375,30.3938349 12.4983633,22.7333656 18.1972656,17.2681503 L18.1972656,24.961599 C18.1972656,26.2148195 19.2072891,27.2308297 20.453125,27.2308297 C21.6989609,27.2308297 22.7089844,26.2148195 22.7089844,24.961599 L22.7089844,13.7087862 C24.1304766,12.7959503 25.6381426,11.9996015 27.2207031,11.3368349 L27.2207031,29.5000605 C27.2207031,30.7531297 28.2307266,31.7692913 29.4765625,31.7692913 C30.7223984,31.7692913 31.7324219,30.7531297 31.7324219,29.5000605 L31.7324219,8.1590041 C31.7325723,8.15280154 31.7324219,8.14659897 31.7324219,8.14039641 L31.7324219,6.80775282 C31.7324219,5.55649897 32.7444004,4.53852205 33.9882812,4.53852205 L43.0117188,4.53852205 C44.2555996,4.53852205 45.2675781,5.55649897 45.2675781,6.80775282 L45.2675781,8.13979128 C45.2675781,8.14629641 45.2674277,8.15265026 45.2675781,8.15915538 L45.2675781,29.5000605 C45.2675781,30.7531297 46.2776016,31.7692913 47.5234375,31.7692913 C48.7692734,31.7692913 49.7792969,30.7531297 49.7792969,29.5000605 L49.7792969,11.3368349 C51.3618574,11.9997528 52.8695234,12.7959503 54.2910156,13.7087862 L54.2910156,24.961599 C54.2910156,26.2148195 55.3010391,27.2308297 56.546875,27.2308297 C57.7927109,27.2308297 58.8027344,26.2148195 58.8027344,24.961599 L58.8027344,17.2681503 C64.5016367,22.7333656 67.9765625,30.3938349 67.9765625,38.5769836 L67.9765625,45.3846759 L9.0234375,45.3846759 L9.0234375,38.5769836 Z M72.4882812,45.7749836 L72.4882812,38.5769836 C72.4882812,31.1053144 70.0933105,24.003681 65.5623418,18.0399913 C61.5404453,12.7460272 55.9796016,8.68622205 49.770875,6.47553744 C49.5980762,2.87547846 46.6326738,6.05128205e-05 43.0117188,6.05128205e-05 L33.9882812,6.05128205e-05 C30.3673262,6.05128205e-05 27.4019238,2.87547846 27.229125,6.47553744 C21.0203984,8.68622205 15.4595547,12.7460272 11.4376582,18.0399913 C6.90668945,24.003681 4.51171875,31.1053144 4.51171875,38.5769836 L4.51171875,45.7749836 C1.88604883,46.7115708 0,49.2338964 0,52.1923682 C0,55.9461297 3.03593555,59.0000605 6.76757812,59.0000605 L70.2324219,59.0000605 C73.9639141,59.0000605 77,55.9461297 77,52.1923682 C77,49.2338964 75.1139512,46.7115708 72.4882812,45.7749836 Z" id="Fill-1"></path>
            </g>
        </g>
    </g>
</svg>