<?xml version="1.0" encoding="UTF-8"?>
<svg width="63px" height="72px" viewBox="0 0 63 72" version="1.1" xmlns="http://www.w3.org/2000/svg" xmlns:xlink="http://www.w3.org/1999/xlink">
    <!-- Generator: Sketch 52 (66869) - http://www.bohemiancoding.com/sketch -->
    <title>Group 13</title>
    <desc>Created with Sketch.</desc>
    <defs>
        <polygon id="path-1" points="0 5.625e-05 63 5.625e-05 63 59.203125 0 59.203125"></polygon>
        <polygon id="path-3" points="0 0 4.2 0 4.2 8.57811094 0 8.57811094"></polygon>
    </defs>
    <g id="Symbols" stroke="none" stroke-width="1" fill="none" fill-rule="evenodd">
        <g id="Icon" transform="translate(-7.000000, 9.000000)">
            <g id="Group-13" transform="translate(7.000000, -9.000000)">
                <g id="Group-3" transform="translate(0.000000, 12.796875)">
                    <mask id="mask-2" fill="white">
                        <use xlink:href="#path-1"></use>
                    </mask>
                    <g id="Clip-2"></g>
                    <path d="M52.5,33.8906813 L56.7,33.8906813 C57.8578,33.8906813 58.8,34.8369469 58.8,36.0000563 C58.8,37.163025 57.8578,38.1094313 56.7,38.1094313 L52.5,38.1094313 C51.3408,38.1094313 50.4,39.0544312 50.4,40.2188063 C50.4,41.3830406 51.3408,42.3281813 52.5,42.3281813 L56.7,42.3281813 C57.8578,42.3281813 58.8,43.2744469 58.8,44.4375563 C58.8,45.600525 57.8578,46.5469313 56.7,46.5469313 L52.5,46.5469313 C51.3408,46.5469313 50.4,47.4919313 50.4,48.6563063 C50.4,49.8205406 51.3408,50.7656813 52.5,50.7656813 C53.6578,50.7656813 54.6,51.7119469 54.6,52.8750563 C54.6,54.038025 53.6578,54.9844313 52.5,54.9844313 L34.9076,54.9844313 C32.872,54.9844313 30.8602,54.656775 28.9296,54.0097594 L21,51.3547594 L21,25.2534938 C24.2942,24.6247594 27.5184,22.5294469 30.429,19.0997437 C33.271,15.7500563 35.5754,11.3089781 36.5932,7.2183375 L37.3394,4.21880625 L37.8,4.21880625 C40.1156,4.21880625 42,6.11147812 42,8.43755625 L42,10.545525 C42,13.3775719 41.118,18.8100563 39.9896,21.2344313 L35.7,21.2344313 C34.5408,21.2344313 33.6,22.1794313 33.6,23.3438063 C33.6,24.5080406 34.5408,25.4531813 35.7,25.4531813 L56.7,25.4531813 C57.8578,25.4531813 58.8,26.3994469 58.8,27.5625563 C58.8,28.725525 57.8578,29.6719312 56.7,29.6719312 L52.5,29.6719312 C51.3408,29.6719312 50.4,30.6169313 50.4,31.7813063 C50.4,32.9455406 51.3408,33.8906813 52.5,33.8906813 Z M16.8,52.8750563 C16.8,54.038025 15.8578,54.9844313 14.7,54.9844313 L4.2,54.9844313 L4.2,21.2344313 L14.7,21.2344313 C15.8578,21.2344313 16.8,22.1806969 16.8,23.3438063 L16.8,52.8750563 Z M61.3914,31.7813062 C62.391,30.6603844 63,29.18115 63,27.5625563 C63,24.0735094 60.1734,21.2344313 56.7,21.2344313 L44.4724,21.2344313 C45.6834,17.543025 46.2,12.6449156 46.2,10.545525 L46.2,8.43755625 C46.2,3.78554062 42.4312,5.625e-05 37.8,5.625e-05 L35.7,5.625e-05 C34.7368,5.625e-05 33.8968,0.65818125 33.663,1.59755625 L32.5192,6.1945875 C30.9162,12.6324 25.8272,19.7353688 20.5604,21.0263063 C19.6378,18.6806812 17.36,17.0156813 14.7,17.0156813 L2.1,17.0156813 C0.9408,17.0156813 0,17.9606813 0,19.1250563 L0,57.0938063 C0,58.2580406 0.9408,59.2031813 2.1,59.2031813 L14.7,59.2031813 C17.2046,59.2031813 19.3718,57.728025 20.3868,55.59615 L27.6024,58.0119469 C29.9614,58.8022594 32.4198,59.2031813 34.9076,59.2031813 L52.5,59.2031813 C55.9734,59.2031813 58.8,56.3639625 58.8,52.8750563 C58.8,52.0522594 58.6432,51.2649 58.3576,50.5434937 C61.0288,49.8108375 63,47.3513062 63,44.4375563 C63,42.8188219 62.391,41.3395875 61.3914,40.2188063 C62.391,39.0978844 63,37.61865 63,36.0000562 C63,34.3813219 62.391,32.9020875 61.3914,31.7813062 Z" id="Fill-1" fill="#EF6E3D" mask="url(#mask-2)"></path>
                </g>
                <path d="M10.5,59.3438063 C11.65976,59.3438063 12.6,60.2882437 12.6,61.4531813 C12.6,62.6181188 11.65976,63.5625563 10.5,63.5625563 C9.34024,63.5625563 8.4,62.6181188 8.4,61.4531813 C8.4,60.2882437 9.34024,59.3438063 10.5,59.3438063" id="Fill-4" fill="#EF6E3D"></path>
                <g id="Group-8" transform="translate(37.800000, 0.000000)">
                    <mask id="mask-4" fill="white">
                        <use xlink:href="#path-3"></use>
                    </mask>
                    <g id="Clip-7"></g>
                    <path d="M2.1,-1.40625e-05 C0.94024,-1.40625e-05 0,0.944423438 0,2.10936094 L0,6.46873594 C0,7.63367344 0.94024,8.57811094 2.1,8.57811094 C3.25976,8.57811094 4.2,7.63367344 4.2,6.46873594 L4.2,2.10936094 C4.2,0.944423438 3.25976,-1.40625e-05 2.1,-1.40625e-05" id="Fill-6" fill="#EF6E3D" mask="url(#mask-4)"></path>
                </g>
                <path d="M30.990386,9.30203437 L28.020566,6.31895625 C27.200586,5.495175 25.870866,5.495175 25.050746,6.31895625 C24.230626,7.1427375 24.230626,8.47825312 25.050746,9.30203437 L28.020566,12.2851125 C28.840546,13.1087531 30.170406,13.1088937 30.990386,12.2851125 C31.810506,11.4613312 31.810506,10.1258156 30.990386,9.30203437" id="Fill-9" fill="#EF6E3D"></path>
                <path d="M54.749296,6.31897031 C53.929316,5.49518906 52.599596,5.49518906 51.779336,6.31897031 L48.809516,9.30190781 C47.989536,10.1256891 47.989536,11.4612047 48.809516,12.2849859 C49.629636,13.1087672 50.959356,13.1089078 51.779476,12.2851266 L54.749296,9.30204844 C55.569276,8.47826719 55.569276,7.14275156 54.749296,6.31897031" id="Fill-11" fill="#EF6E3D"></path>
            </g>
        </g>
    </g>
</svg>