<?xml version="1.0" encoding="UTF-8"?>
<svg width="24px" height="19px" viewBox="0 0 24 19" version="1.1" xmlns="http://www.w3.org/2000/svg" xmlns:xlink="http://www.w3.org/1999/xlink">
    <!-- Generator: Sketch 55.2 (78181) - https://sketchapp.com -->
    <title>Twitter</title>
    <desc>Created with Sketch.</desc>
    <g id="Symbols" stroke="none" stroke-width="1" fill="none" fill-rule="evenodd">
        <g id="Footer" transform="translate(-367.000000, -194.000000)" fill="#EF6E3D">
            <g id="Twitter" transform="translate(367.000000, 194.000026)">
                <path d="M24,2.24895677 C23.1164348,2.63064413 22.167913,2.88832121 21.1716522,3.00445378 C22.1887826,2.41083084 22.9693043,1.47058902 23.3371304,0.350684785 C22.3854783,0.900090948 21.3315652,1.29956666 20.2103478,1.51455168 C19.311913,0.582187567 18.032087,0 16.616087,0 C13.8967826,0 11.6921739,2.14756313 11.6921739,4.79624973 C11.6921739,5.17234646 11.7354783,5.53827841 11.8197391,5.88921731 C7.72773913,5.68947946 4.09852174,3.7797721 1.6706087,0.87772844 C1.24669565,1.58646747 1.00382609,2.4103226 1.00382609,3.28932163 C1.00382609,4.95329553 1.87304348,6.42108924 3.19408696,7.28153756 C2.38747826,7.25663385 1.62782609,7.04114059 0.963913043,6.68181575 C0.963391304,6.70163706 0.963391304,6.7217125 0.963391304,6.74204205 C0.963391304,9.06596405 2.66113043,11.004641 4.91321739,11.44503 C4.50052174,11.5548095 4.0653913,11.6137652 3.61591304,11.6137652 C3.29895652,11.6137652 2.99086957,11.583525 2.68982609,11.5276188 C3.31643478,13.4330061 5.13547826,14.8199898 7.28947826,14.8583619 C5.604,16.1452226 3.48156522,16.9119008 1.17443478,16.9119008 C0.777130435,16.9119008 0.385304348,16.8890301 0,16.8443051 C2.17878261,18.2056227 4.76634783,19 7.548,19 C16.6043478,19 21.5574783,11.6907634 21.5574783,5.352263 C21.5574783,5.14490156 21.5527826,4.93779424 21.5431304,4.7317034 C22.5052174,4.05574577 23.3397391,3.21105286 24,2.24895677"></path>
            </g>
        </g>
    </g>
</svg>