<?xml version="1.0" encoding="UTF-8"?>
<svg width="26px" height="19px" viewBox="0 0 26 19" version="1.1" xmlns="http://www.w3.org/2000/svg" xmlns:xlink="http://www.w3.org/1999/xlink">
    <!-- Generator: Sketch 55.2 (78181) - https://sketchapp.com -->
    <title>Youtube</title>
    <desc>Created with Sketch.</desc>
    <g id="Symbols" stroke="none" stroke-width="1" fill="none" fill-rule="evenodd">
        <g id="Footer" transform="translate(-321.000000, -194.000000)" fill="#EF6E3D">
            <g id="Youtube" transform="translate(321.000000, 194.000000)">
                <path d="M10.4044417,13.3954471 L10.4044417,5.35621176 L17.1904417,9.38197647 L10.4044417,13.3954471 Z M25.4476083,2.89403529 C25.141025,1.76074118 24.283025,0.875564706 23.1856083,0.560388235 C21.159775,0.000426191814 13.0066083,0.000426191814 13.0066083,0.000426191814 C13.0066083,0.000426191814 4.874025,-0.0118470588 2.82760833,0.560388235 C1.73019167,0.875564706 0.872191667,1.76074118 0.565608333,2.89403529 C0.181025,5.03321176 -0.007475,7.2048 -0.00011162523,9.38197647 C-0.00639166667,11.5502118 0.183191667,13.7128588 0.565608333,15.8442118 C0.872191667,16.9775059 1.73019167,17.8626824 2.82760833,18.1778588 C4.851275,18.7389176 13.0066083,18.7389176 13.0066083,18.7389176 C13.0066083,18.7389176 21.1381083,18.7389176 23.1856083,18.1778588 C24.283025,17.8626824 25.141025,16.9775059 25.4476083,15.8442118 C25.8224417,13.7117412 26.0033583,11.5490941 25.989275,9.38197647 C26.005525,7.20591765 25.823525,5.03432941 25.4476083,2.89403529 L25.4476083,2.89403529 Z" id="Fill-1"></path>
            </g>
        </g>
    </g>
</svg>